<?xml version="1.0" encoding="UTF-8" standalone="no"?>
<svg
   width="220"
   height="131.741"
   version="1.1"
   id="svg15"
   sodipodi:docname="logo.svg"
   inkscape:version="1.2.2 (b0a8486541, 2022-12-01)"
   xmlns:inkscape="http://www.inkscape.org/namespaces/inkscape"
   xmlns:sodipodi="http://sodipodi.sourceforge.net/DTD/sodipodi-0.dtd"
   xmlns="http://www.w3.org/2000/svg"
   xmlns:svg="http://www.w3.org/2000/svg">
  <sodipodi:namedview
     id="namedview17"
     pagecolor="#ffffff"
     bordercolor="#999999"
     borderopacity="1"
     inkscape:showpageshadow="0"
     inkscape:pageopacity="0"
     inkscape:pagecheckerboard="0"
     inkscape:deskcolor="#d1d1d1"
     showgrid="false"
     inkscape:zoom="2.8284271"
     inkscape:cx="34.648233"
     inkscape:cy="100.40916"
     inkscape:window-width="1920"
     inkscape:window-height="1013"
     inkscape:window-x="0"
     inkscape:window-y="29"
     inkscape:window-maximized="1"
     inkscape:current-layer="svg15" />
  <defs
     id="defs9">
    <rect
       x="4.5750681"
       y="93.830036"
       width="214.36132"
       height="37.329511"
       id="rect473" />
    <linearGradient
       id="A">
      <stop
         stop-color="#8f5e25"
         offset="0"
         id="stop2" />
      <stop
         stop-color="#fbf4a1"
         offset=".5"
         id="stop4" />
      <stop
         stop-color="#8f5e25"
         offset="1"
         id="stop6" />
    </linearGradient>
  </defs>
  <path
     d="M 157.73301,3.5048134 110.78019,18.97364 v 53.840552 c -2.04804,-0.925109 -4.77354,-1.071799 -7.48339,-0.206649 -4.686334,1.495807 -7.534804,5.437162 -6.363218,8.803535 1.171584,3.366373 5.919408,4.881455 10.605738,3.385646 4.18329,-1.3352 6.89313,-4.619126 6.59464,-7.703897 V 28.625194 l 40.24528,-13.273831 v 34.992505 c -2.05139,-0.93796 -4.79143,-1.091074 -7.5147,-0.221642 -4.68633,1.495809 -7.53481,5.437164 -6.36321,8.803537 1.17158,3.366372 5.9194,4.881455 10.60574,3.385646 3.9407,-1.258108 6.57116,-4.245442 6.61588,-7.165321 h 0.01 z M 72.770765,3.9984196 V 50.039779 c -2.0894,-0.95509 -5.009417,-1.039677 -7.784106,-0.153113 -4.772418,1.523647 -7.67455,5.537812 -6.481725,8.966288 1.192825,3.428475 6.028965,4.972467 10.802502,3.448818 4.013349,-1.281662 6.760088,-4.323605 6.804806,-7.298091 h 0.0123 V 18.98863 c 0,0 14.45029,4.005598 19.004713,19.273127 0,-17.448605 -15.65094,-20.343857 -22.358486,-34.2633374 z M 93.366285,78.949471 H 53.766053 v 2.141459 h 39.659481 a 8.6639131,8.2981522 0 0 1 -0.05925,-2.141459 z m 67.720495,2.141459 v -2.141459 h -43.71083 a 9.6812241,9.2725158 0 0 1 -0.66071,2.141459 z M 57.207024,62.888532 h -3.440971 v 2.141458 h 6.562216 c -1.208475,-0.536436 -2.26715,-1.259177 -3.121245,-2.141458 z M 161.08678,65.02999 v -2.141458 h -4.21345 c -1.09332,0.860867 -2.36106,1.592174 -3.77523,2.141458 z m -21.91019,-2.141458 h -21.68886 v 2.141458 h 24.76762 a 9.7706581,9.3581741 0 0 1 -3.07876,-2.141458 z m -64.069363,0 a 14.980185,14.347772 0 0 1 -3.837834,2.141458 h 36.157027 v -2.141458 z m 4.371084,-16.06094 h 27.948109 v 2.141459 H 79.478311 Z m -15.511199,0 H 53.766053 v 2.141459 h 5.869103 c 1.236423,-0.883352 2.677428,-1.61466 4.29171,-2.130751 0.01342,-0.0043 0.02683,-0.0065 0.04025,-0.01067 z m 53.520618,2.141459 h 24.39534 a 15.091978,14.454846 0 0 1 3.92056,-1.89412 l 0.88988,-0.247339 H 117.48773 Z M 87.583262,30.766652 h -8.104951 v 2.141459 h 9.608559 c -0.477353,-0.76236 -0.98042,-1.475465 -1.503608,-2.141459 z m -33.817209,0 h 15.650939 v 2.141459 H 53.766053 Z m 63.721677,2.141459 h 33.53773 v -2.141459 h -33.08384 l -0.45389,0.149902 z m -19.50666,0 h 9.44535 v -2.141459 h -9.94729 z m -9.856733,-16.06094 h 20.153943 a 3.3425936,3.2014807 0 0 1 1.41193,-0.91119 l 3.73499,-1.230268 H 85.834828 Z M 53.766053,14.705713 h 15.650939 v 2.141458 H 53.766053 Z"
     fill="#fce38f"
     id="path11"
     style="stroke-width:1.09407" />
  <text
     xml:space="preserve"
     id="text471"
     style="font-style:normal;font-variant:normal;font-weight:bold;font-stretch:normal;font-size:26.6667px;font-family:C059;-inkscape-font-specification:'C059, Bold';font-variant-ligatures:normal;font-variant-caps:normal;font-variant-numeric:normal;font-variant-east-asian:normal;white-space:pre;shape-inside:url(#rect473);display:inline;fill:#fce38f;fill-opacity:1"
     transform="matrix(1.1871808,0,0,1.1370621,27.061958,-9.2452066)"><tspan
       x="4.5742188"
       y="116.81677"
       id="tspan318">MESMER</tspan></text>
</svg>
